<svg width="24" height="24" viewBox="0 0 24 24" fill="none" xmlns="http://www.w3.org/2000/svg">
  <path d="M21.5287 15.9294C20.7403 16.2428 19.9012 16.406 19.0502 16.406C15.4299 16.406 12.4999 13.476 12.4999 9.85566C12.4999 7.67298 13.5042 5.72384 15.0941 4.51731C15.2923 4.37681 15.1764 4.0766 14.9412 4.08326C14.8414 4.08659 14.7425 4.08994 14.6427 4.09329C10.1471 4.32789 6.59991 8.02394 6.59991 12.5665C6.59991 17.2626 10.3873 21.05 15.0835 21.05C17.899 21.05 20.3783 19.6652 21.8239 17.5133C21.9616 17.3165 21.7672 17.0591 21.5287 17.0591C21.5287 17.0591 21.7403 16.2428 21.5287 15.9294Z" fill="white" fill-opacity="0.87"/>
</svg> 